<svg xmlns="http://www.w3.org/2000/svg" viewBox="0 0 632.67 147.63"><defs><style>.cls-1{font-size:102px;font-family:Geist-Black, Geist;font-weight:800;letter-spacing:-0.03em;}.cls-2{letter-spacing:-0.07em;}.cls-3{letter-spacing:-0.06em;}.cls-4{letter-spacing:-0.03em;}.cls-5{letter-spacing:-0.05em;}.cls-6{letter-spacing:-0.03em;}.cls-7{fill:#3d3d3d;stroke:#ddd;stroke-linecap:round;stroke-miterlimit:10;stroke-width:2.53px;}</style></defs><g id="Layer_2" data-name="Layer 2"><g id="Layer_1-2" data-name="Layer 1"><text class="cls-1" transform="translate(0 123.15) scale(1.03 1)">Ch<tspan class="cls-2" x="131.78" y="0">a</tspan><tspan x="189.21" y="0">tW</tspan><tspan class="cls-3" x="334.15" y="0">i</tspan><tspan class="cls-4" x="358.63" y="0">th</tspan><tspan class="cls-5" x="462.87" y="0">M</tspan><tspan class="cls-6" x="552.73" y="0">e</tspan></text><path d="M53.69,9.2A8.82,8.82,0,0,1,54,6.79C54.53,5,55.68,2,57.8.77,60.62-.81,89.23.49,94.28.73a4.63,4.63,0,0,1,1.9.53,8.89,8.89,0,0,1,4.61,6.79c.94,6,0,26.38,0,26.38s-.26,5.87-1.46,6.08-43.93,0-43.93,0-1.71-.86-1.71-9.77Z"/><polygon points="55.18 40.24 58.7 46.67 62.22 40.24 55.18 40.24"/><line class="cls-7" x1="62.78" y1="8.22" x2="92.11" y2="8.34"/><line class="cls-7" x1="62.71" y1="16.15" x2="92.04" y2="16.27"/><line class="cls-7" x1="62.71" y1="23.9" x2="85.02" y2="24"/></g></g></svg>