<?xml version="1.0" encoding="utf-8"?>
<!-- Generator: Adobe Illustrator 24.1.1, SVG Export Plug-In . SVG Version: 6.00 Build 0)  -->
<svg version="1.1" id="Layer_1" xmlns="http://www.w3.org/2000/svg" xmlns:xlink="http://www.w3.org/1999/xlink" x="0px" y="0px"
	 viewBox="0 0 632.7 147.6" style="enable-background:new 0 0 632.7 147.6;" xml:space="preserve">
<style type="text/css">
	.st0{fill:#FFFFFF;}
	.st1{fill:#DDDDDD;stroke:#4D4D4D;stroke-width:2;stroke-linecap:round;stroke-miterlimit:10;}
	.st2{fill:#DDDDDD;stroke:#666666;stroke-width:2.5301;stroke-linecap:round;stroke-miterlimit:10;}
</style>
<g>
	<g>
		<path class="st0" d="M40.8,124.8C18.5,124.8,4,108.7,4,87c0-21.6,14.4-37.9,36.8-37.9c17.7,0,29.4,9.8,33,25.9l-19,0.8
			c-1.7-7.3-6.7-12-14.4-12c-11.8,0-17.5,9.7-17.5,23.3c0,13.5,5.7,23.1,17.5,23.1c7.9,0,13-5.1,14.4-13L74.1,98
			C70.5,114.6,58.8,124.8,40.8,124.8z"/>
		<path class="st0" d="M99,50.7v25.1c3.3-5.9,9-8,15.7-8c11.9,0,18.7,8.6,18.7,20.5v34.8h-18.3V94.6c0-8.1-1.4-12.6-7.4-12.6
			S99,86.5,99,94.6v28.6H80.7V50.7H99z"/>
		<path class="st0" d="M167.6,67.9c17.9,0,26.8,8,26.8,23.9V107c0,4,1.7,4.6,3.6,4.6h1.9v11.5l-2.5,0.2c-2.8,0.1-15.8,2-17.8-8.4
			c-2.8,5.8-9.3,9.4-19.9,9.4c-11.4,0-20-5.9-20-15.5c0-9.7,7.4-13.8,21.3-16.4l14.9-3c0-7.4-2.6-10.9-8.3-10.9
			c-4.8,0-7.8,2.8-8.7,8.4l-18.3-0.8C142.8,74.2,152,67.9,167.6,67.9z M165.9,113.6c6.1,0,10.3-4.5,10.3-13.3v-0.6l-7.9,1.4
			c-5.9,1.1-9.9,2.2-9.9,7C158.5,111.2,161.1,113.6,165.9,113.6z"/>
		<path class="st0" d="M226.8,56.7v12.3h14.5v12.8h-14.5v22.4c0,3.9,2.1,6,5.9,6h8.8v12.9h-13.4c-12.9,0-19.7-6.1-19.7-18.9V81.8
			h-9.5V69.1h9.5V56.7H226.8z"/>
		<path class="st0" d="M262.7,50.7l12,47.5l12.1-47.5h15.4l12.2,47.5l11.9-47.5h19L325,123.1h-19.2l-11.4-42l-11.3,42h-19.2
			l-20.4-72.4H262.7z"/>
		<path class="st0" d="M351,50.7h18.8v11.8H351V50.7z M369.5,69.1v54.1h-18.3V69.1H369.5z"/>
		<path class="st0" d="M401.6,56.7v12.3h14.5v12.8h-14.5v22.4c0,3.9,2.1,6,5.9,6h8.8v12.9H403c-12.9,0-19.7-6.1-19.7-18.9V81.8h-9.5
			V69.1h9.5V56.7H401.6z"/>
		<path class="st0" d="M440.5,50.7v25.1c3.3-5.9,9-8,15.7-8c11.9,0,18.7,8.6,18.7,20.5v34.8h-18.3V94.6c0-8.1-1.4-12.6-7.4-12.6
			s-8.7,4.6-8.7,12.6v28.6h-18.3V50.7H440.5z"/>
		<path class="st0" d="M509,50.7l17.3,49.2l17.2-49.2H568v72.4h-18.5V78.7l-16,44.3h-14.3l-16-44.3v44.5h-18.5V50.7H509z"/>
		<path class="st0" d="M603.8,67.9c16.5,0,28.7,11.2,28.3,30.2v2.6h-39c0.4,6.9,4.4,11.2,10.7,11.2c4.1,0,7.8-2.2,9.3-5.9l18.3,1.3
			c-3.5,10.5-14.1,17.1-27.6,17.1c-18,0-29.8-11.2-29.8-28.3C574.1,79.1,585.9,67.9,603.8,67.9z M613.8,90.7
			c-0.6-7.1-4.9-10.3-10-10.3c-6,0-10,3.9-10.6,10.3H613.8z"/>
	</g>
	<g>
		<path class="st0" d="M53.7,9.2c0-0.8,0.1-1.6,0.3-2.4c0.5-1.8,1.7-4.8,3.8-6c2.8-1.6,31.4-0.3,36.5,0c0.7,0,1.3,0.2,1.9,0.5
			c1.5,0.8,4,2.7,4.6,6.8c0.9,6,0,26.4,0,26.4s0.1,5.8-1.5,6.1c-1.4,0.3-43.9,0-43.9,0s-1.7-0.9-1.7-9.8V9.2z"/>
		<polygon class="st0" points="55.2,40.2 58.7,46.7 62.2,40.2 		"/>
		<line class="st1" x1="62.8" y1="8.2" x2="92.1" y2="8.3"/>
		<line class="st2" x1="62.7" y1="16.1" x2="92" y2="16.3"/>
		<line class="st2" x1="62.7" y1="8.3" x2="92" y2="8.5"/>
		<line class="st2" x1="62.7" y1="23.9" x2="85" y2="24"/>
	</g>
</g>
</svg>
